<svg xmlns="http://www.w3.org/2000/svg" viewBox="0 0 100 125" x="0px" y="0px"><path d="M8.03,27.45c1.12,0,2.03-.91,2.03-2.03V10.06h15.35c1.12,0,2.03-.91,2.03-2.03s-.91-2.03-2.03-2.03H8.03c-1.12,0-2.03,.91-2.03,2.03V25.42c0,1.12,.91,2.03,2.03,2.03Z"/><path d="M91.97,6h-17.38c-1.12,0-2.03,.91-2.03,2.03s.91,2.03,2.03,2.03h15.35v15.35c0,1.12,.91,2.03,2.03,2.03s2.03-.91,2.03-2.03V8.03c0-1.12-.91-2.03-2.03-2.03Z"/><path d="M25.42,89.94H10.06v-15.35c0-1.12-.91-2.03-2.03-2.03s-2.03,.91-2.03,2.03v17.38c0,1.12,.91,2.03,2.03,2.03H25.42c1.12,0,2.03-.91,2.03-2.03s-.91-2.03-2.03-2.03Z"/><path d="M91.97,72.55c-1.12,0-2.03,.91-2.03,2.03v15.35h-15.35c-1.12,0-2.03,.91-2.03,2.03s.91,2.03,2.03,2.03h17.38c1.12,0,2.03-.91,2.03-2.03v-17.38c0-1.12-.91-2.03-2.03-2.03Z"/><path d="M36.89,35.85h41.76c1.12,0,2.03-.91,2.03-2.03s-.91-2.03-2.03-2.03H36.89c-1.12,0-2.03,.91-2.03,2.03s.91,2.03,2.03,2.03Z"/><path d="M78.65,47.97H21.35c-1.12,0-2.03,.91-2.03,2.03s.91,2.03,2.03,2.03h57.29c1.12,0,2.03-.91,2.03-2.03s-.91-2.03-2.03-2.03Z"/><path d="M78.65,64.15H21.35c-1.12,0-2.03,.91-2.03,2.03s.91,2.03,2.03,2.03h57.29c1.12,0,2.03-.91,2.03-2.03s-.91-2.03-2.03-2.03Z"/></svg>