<svg xmlns="http://www.w3.org/2000/svg" xmlns:xlink="http://www.w3.org/1999/xlink" version="1.1" x="0px" y="0px" viewBox="0 0 100 125" style="enable-background:new 0 0 100 100;" xml:space="preserve"><title>Tech-icons-100px-by-100px</title><path d="M18.7,8.8c-1.8,0-3.3,1.5-3.3,3.3l0,0v75.8c0,1.8,1.5,3.3,3.3,3.3c0,0,0,0,0,0H46V8.8H18.7z M40.8,84.1  c0,0.7-0.6,1.3-1.3,1.3H21.1c-0.7,0-1.3-0.6-1.3-1.3v-0.5c0-0.7,0.6-1.3,1.3-1.3h18.4c0.7,0,1.3,0.6,1.3,1.3L40.8,84.1z M40.8,70.5  c0,0.7-0.6,1.3-1.3,1.3H21.1c-0.7,0-1.3-0.6-1.3-1.3V70c0-0.7,0.6-1.3,1.3-1.3h18.4c0.7,0,1.3,0.6,1.3,1.3V70.5z M40.8,57  c0,0.7-0.6,1.3-1.3,1.3H21.1c-0.7,0-1.3-0.6-1.3-1.3v-0.5c0-0.7,0.6-1.3,1.3-1.3h18.4c0.7,0,1.3,0.6,1.3,1.3L40.8,57z M40.8,43.5  c0,0.7-0.6,1.3-1.3,1.3H21.1c-0.7,0-1.3-0.6-1.3-1.3v-0.5c0-0.7,0.6-1.3,1.3-1.3c0,0,0,0,0,0h18.4c0.7,0,1.3,0.6,1.3,1.3L40.8,43.5z   M40.8,29.9c0,0.7-0.6,1.3-1.3,1.3H21.1c-0.7,0-1.3-0.6-1.3-1.3c0,0,0,0,0,0v-0.5c0-0.7,0.6-1.3,1.3-1.3c0,0,0,0,0,0h18.4  c0.7,0,1.3,0.6,1.3,1.3L40.8,29.9z M40.8,16.4c0,0.7-0.6,1.3-1.3,1.3H21.1c-0.7,0-1.3-0.6-1.3-1.3c0,0,0,0,0,0v-0.5  c0-0.7,0.6-1.3,1.3-1.3h18.4c0.7,0,1.3,0.6,1.3,1.3L40.8,16.4z"/><path d="M84.6,18.6v62.8c0,5.4-4.4,9.8-9.8,9.8H54v-8.2h0.2c1.7,0.1,3.2-1.2,3.3-2.9c0.1-1.7-1.2-3.2-2.9-3.3c-0.1,0-0.2,0-0.4,0H54  v-7.4h17.6c4,0,7.2-2.9,7.2-6.5V20.8c0-3.6-3.2-6.5-7.2-6.5H54V8.8h20.8C80.2,8.8,84.5,13.2,84.6,18.6z"/></svg>