<svg xmlns="http://www.w3.org/2000/svg" version="1.1" viewBox="-5.0 -10.0 110.0 135.0">
 <path d="m68.527 18.035-13.434-13.516-0.082031 13.516 13.516-0.003906zm-20.148 45.77c0 0.53906-0.4375 0.97656-0.97656 0.97656-0.53906 0-0.97656-0.4375-0.97656-0.97656v-8.2578c0-0.53906 0.4375-0.97656 0.97656-0.97656h8.2578c0.53906 0 0.97656 0.4375 0.97656 0.97656s-0.4375 0.97656-0.97656 0.97656h-7.2812zm31.098-7.2852c-0.53906 0-0.97656-0.4375-0.97656-0.97656 0-0.53906 0.4375-0.97656 0.97656-0.97656h8.2578c0.53906 0 0.97656 0.4375 0.97656 0.97656v8.2578c0 0.53906-0.4375 0.97656-0.97656 0.97656s-0.97656-0.4375-0.97656-0.97656v-7.2812zm7.2812 31.102c0-0.53906 0.4375-0.97656 0.97656-0.97656s0.97656 0.4375 0.97656 0.97656v8.2578c0 0.53906-0.4375 0.97656-0.97656 0.97656h-8.2578c-0.53906 0-0.97656-0.4375-0.97656-0.97656 0-0.53906 0.4375-0.97656 0.97656-0.97656h7.2812zm-31.098 7.2812c0.53906 0 0.97656 0.4375 0.97656 0.97656 0 0.53906-0.4375 0.97656-0.97656 0.97656h-8.2578c-0.53906 0-0.97656-0.4375-0.97656-0.97656v-8.2578c0-0.53906 0.4375-0.97656 0.97656-0.97656 0.53906 0 0.97656 0.4375 0.97656 0.97656v7.2812zm19.75-27.07h-2.457v-4.0078c0-0.53906-0.4375-0.97656-0.97656-0.97656-0.53906 0-0.97656 0.4375-0.97656 0.97656v4.0078h-2.5234v-4.0078c0-0.53906-0.4375-0.97656-0.97656-0.97656s-0.97656 0.4375-0.97656 0.97656v4.0078h-2.5195v-4.0078c0-0.53906-0.4375-0.97656-0.97656-0.97656-0.53906 0-0.97656 0.4375-0.97656 0.97656v4.0078h-2.457v2.457h-3.9531c-0.53906 0-0.97656 0.4375-0.97656 0.97656s0.4375 0.97656 0.97656 0.97656h3.9531v2.5234h-3.9531c-0.53906 0-0.97656 0.4375-0.97656 0.97656 0 0.53906 0.4375 0.97656 0.97656 0.97656h3.9531v2.5234h-3.9531c-0.53906 0-0.97656 0.4375-0.97656 0.97656s0.4375 0.97656 0.97656 0.97656h3.9531l0.003906 2.4492h2.457v3.9531c0 0.53906 0.4375 0.97656 0.97656 0.97656s0.97656-0.4375 0.97656-0.97656v-3.9531h2.5195v3.9531c0 0.53906 0.4375 0.97656 0.97656 0.97656 0.53906 0 0.97656-0.4375 0.97656-0.97656v-3.9531h2.5234v3.9531c0 0.53906 0.4375 0.97656 0.97656 0.97656 0.53906 0 0.97656-0.4375 0.97656-0.97656v-3.9531h2.457v-2.457h4.0859c0.53906 0 0.97656-0.4375 0.97656-0.97656 0-0.53906-0.4375-0.97656-0.97656-0.97656h-4.0859v-2.5234h4.0859c0.53906 0 0.97656-0.4375 0.97656-0.97656s-0.4375-0.97656-0.97656-0.97656h-4.0859v-2.5234h4.0859c0.53906 0 0.97656-0.4375 0.97656-0.97656 0-0.53906-0.4375-0.97656-0.97656-0.97656h-4.0859zm-5.3047 5.3047v5.207h-5.207v-5.207zm-6.1797-1.9531h7.1602c0.53906 0 0.97656 0.4375 0.97656 0.97656v7.1602c0 0.53906-0.4375 0.97656-0.97656 0.97656h-7.1602c-0.53906 0-0.97656-0.4375-0.97656-0.97656v-7.1602c0-0.53906 0.4375-0.97656 0.97656-0.97656zm-13.637-12.75h5.3711c1.5938 0 2.8867-1.293 2.8867-2.8867s-1.293-2.8867-2.8867-2.8867h-8.2578c-1.5938 0-2.8867 1.293-2.8867 2.8867v8.2578c0 1.5938 1.293 2.8867 2.8867 2.8867s2.8867-1.293 2.8867-2.8867zm-28.637 25.246h-10.363v-80.535h41.867l-0.097656 15.859c-0.003906 0.53906 0.42969 0.97266 0.96875 0.97656h0.003906v0.003906h15.863v17.684h-0.003906v14.949c0 3.457-0.003906 6.5234-0.039063 9.2539-0.039062 0.042968-0.074218 0.085937-0.11328 0.12891-0.53125-0.64844-1.3359-1.0625-2.2383-1.0625s-1.707 0.41406-2.2383 1.0625c-0.53125-0.64844-1.3359-1.0625-2.2383-1.0625-1.5938 0-2.8867 1.293-2.8867 2.8867v2.0977h-2.457v2.457h-2.043c-1.5938 0-2.8867 1.293-2.8867 2.8867 0 0.90234 0.41406 1.707 1.0625 2.2383-0.64844 0.53125-1.0625 1.3359-1.0625 2.2383 0 0.90234 0.41406 1.707 1.0625 2.2383-0.64844 0.52734-1.0625 1.3359-1.0625 2.2383 0 1.5938 1.293 2.8867 2.8867 2.8867h2.043v0.49609c-3.4609 0-7.6992 0.070313-13.211 0.078126zm2.3672-49.582h31.406c0.50781 0 0.92188-0.41406 0.92188-0.92188 0-0.50781-0.41406-0.92188-0.92188-0.92188h-31.406c-0.50781 0-0.92188 0.41406-0.92188 0.92188 0 0.50781 0.41016 0.92188 0.92188 0.92188zm-0.16406 31.945h14.922c0.42188 0 0.76172-0.41406 0.76172-0.92188 0-0.50781-0.33984-0.92188-0.76172-0.92188h-14.922c-0.41797 0-0.76172 0.41406-0.76172 0.92188 0.003906 0.51172 0.34375 0.92188 0.76172 0.92188zm0-7.9883h14.922c0.42188 0 0.76172-0.41406 0.76172-0.92188 0-0.50781-0.33984-0.92187-0.76172-0.92187h-14.922c-0.41797 0-0.76172 0.41406-0.76172 0.92187 0.003906 0.51172 0.34375 0.92188 0.76172 0.92188zm0.16406-31.945h31.406c0.50781 0 0.92188-0.41406 0.92188-0.92188s-0.41406-0.92188-0.92188-0.92188h-31.406c-0.50781 0-0.92188 0.41406-0.92188 0.92188s0.41016 0.92188 0.92188 0.92188zm0 23.961h31.406c0.50781 0 0.92188-0.41406 0.92188-0.92187 0-0.50781-0.41406-0.92188-0.92188-0.92188h-31.406c-0.50781 0-0.92188 0.41406-0.92188 0.92188 0 0.50781 0.41016 0.92187 0.92188 0.92187zm0-7.9883h31.406c0.50781 0 0.92188-0.41406 0.92188-0.92188 0-0.50781-0.41406-0.92188-0.92188-0.92188h-31.406c-0.50781 0-0.92188 0.41406-0.92188 0.92188 0 0.50781 0.41016 0.92188 0.92188 0.92188z" fill-rule="evenodd"/>
</svg>